<mxfile host="app.diagrams.net" modified="2023-04-07T07:22:25.342Z" agent="Mozilla/5.0 (Macintosh; Intel Mac OS X 10_15_7) AppleWebKit/537.36 (KHTML, like Gecko) Chrome/111.0.0.0 Safari/537.36 Edg/111.0.1661.62" etag="Qaa6hFhBiWalqc6hlzXZ" version="21.1.5" type="onedrive">
  <diagram id="kgpKYQtTHZ0yAKxKKP6v" name="Page-1">
    <mxGraphModel grid="1" page="1" gridSize="10" guides="1" tooltips="1" connect="1" arrows="1" fold="1" pageScale="1" pageWidth="850" pageHeight="1100" math="0" shadow="0">
      <root>
        <mxCell id="0" />
        <mxCell id="1" parent="0" />
        <mxCell id="x2aofLgxbH5DukJWeSKt-3" value="Hourly" style="shape=umlLifeline;perimeter=lifelinePerimeter;container=1;collapsible=0;recursiveResize=0;rounded=0;shadow=0;strokeWidth=1;" vertex="1" parent="1">
          <mxGeometry x="320" y="80" width="80" height="750" as="geometry" />
        </mxCell>
        <mxCell id="x2aofLgxbH5DukJWeSKt-15" value="" style="html=1;points=[];perimeter=orthogonalPerimeter;outlineConnect=0;targetShapes=umlLifeline;portConstraint=eastwest;newEdgeStyle={&quot;edgeStyle&quot;:&quot;elbowEdgeStyle&quot;,&quot;elbow&quot;:&quot;vertical&quot;,&quot;curved&quot;:0,&quot;rounded&quot;:0};" vertex="1" parent="x2aofLgxbH5DukJWeSKt-3">
          <mxGeometry x="35" y="89" width="10" height="20" as="geometry" />
        </mxCell>
        <mxCell id="x2aofLgxbH5DukJWeSKt-19" value="" style="html=1;points=[];perimeter=orthogonalPerimeter;outlineConnect=0;targetShapes=umlLifeline;portConstraint=eastwest;newEdgeStyle={&quot;edgeStyle&quot;:&quot;elbowEdgeStyle&quot;,&quot;elbow&quot;:&quot;vertical&quot;,&quot;curved&quot;:0,&quot;rounded&quot;:0};" vertex="1" parent="x2aofLgxbH5DukJWeSKt-3">
          <mxGeometry x="35" y="190" width="10" height="20" as="geometry" />
        </mxCell>
        <mxCell id="x2aofLgxbH5DukJWeSKt-1" value="Employee" style="shape=umlLifeline;perimeter=lifelinePerimeter;container=1;collapsible=0;recursiveResize=0;rounded=0;shadow=0;strokeWidth=1;" vertex="1" parent="1">
          <mxGeometry x="200" y="80" width="80" height="750" as="geometry" />
        </mxCell>
        <mxCell id="x2aofLgxbH5DukJWeSKt-16" value="" style="html=1;points=[];perimeter=orthogonalPerimeter;outlineConnect=0;targetShapes=umlLifeline;portConstraint=eastwest;newEdgeStyle={&quot;edgeStyle&quot;:&quot;elbowEdgeStyle&quot;,&quot;elbow&quot;:&quot;vertical&quot;,&quot;curved&quot;:0,&quot;rounded&quot;:0};" vertex="1" parent="x2aofLgxbH5DukJWeSKt-1">
          <mxGeometry x="35" y="120" width="10" height="130" as="geometry" />
        </mxCell>
        <mxCell id="x2aofLgxbH5DukJWeSKt-17" value="" style="html=1;points=[];perimeter=orthogonalPerimeter;outlineConnect=0;targetShapes=umlLifeline;portConstraint=eastwest;newEdgeStyle={&quot;edgeStyle&quot;:&quot;elbowEdgeStyle&quot;,&quot;elbow&quot;:&quot;vertical&quot;,&quot;curved&quot;:0,&quot;rounded&quot;:0};" vertex="1" parent="x2aofLgxbH5DukJWeSKt-1">
          <mxGeometry x="45" y="150" width="10" height="20" as="geometry" />
        </mxCell>
        <mxCell id="x2aofLgxbH5DukJWeSKt-18" value="4 :&amp;nbsp;calcGrossPay(month,yr)" style="html=1;align=left;spacingLeft=2;endArrow=block;rounded=0;edgeStyle=orthogonalEdgeStyle;curved=0;rounded=0;" edge="1" parent="x2aofLgxbH5DukJWeSKt-1" target="x2aofLgxbH5DukJWeSKt-17">
          <mxGeometry x="-1" y="-10" relative="1" as="geometry">
            <mxPoint x="50" y="130" as="sourcePoint" />
            <Array as="points">
              <mxPoint x="50" y="130" />
              <mxPoint x="80" y="130" />
              <mxPoint x="80" y="150" />
            </Array>
            <mxPoint as="offset" />
          </mxGeometry>
        </mxCell>
        <mxCell id="3nuBFxr9cyL0pnOWT2aG-1" value="Main" style="shape=umlLifeline;perimeter=lifelinePerimeter;container=1;collapsible=0;recursiveResize=0;rounded=0;shadow=0;strokeWidth=1;" vertex="1" parent="1">
          <mxGeometry x="80" y="80" width="80" height="750" as="geometry" />
        </mxCell>
        <mxCell id="3nuBFxr9cyL0pnOWT2aG-2" value="" style="points=[];perimeter=orthogonalPerimeter;rounded=0;shadow=0;strokeWidth=1;" vertex="1" parent="3nuBFxr9cyL0pnOWT2aG-1">
          <mxGeometry x="35" y="70" width="10" height="660" as="geometry" />
        </mxCell>
        <mxCell id="x2aofLgxbH5DukJWeSKt-14" value="3 :&amp;nbsp;calcCompensation(month,year)" style="html=1;verticalAlign=bottom;endArrow=block;edgeStyle=elbowEdgeStyle;elbow=vertical;curved=0;rounded=0;" edge="1" parent="3nuBFxr9cyL0pnOWT2aG-1" target="x2aofLgxbH5DukJWeSKt-16">
          <mxGeometry x="0.6502" width="80" relative="1" as="geometry">
            <mxPoint x="45" y="120.1" as="sourcePoint" />
            <mxPoint x="150" y="120" as="targetPoint" />
            <mxPoint as="offset" />
          </mxGeometry>
        </mxCell>
        <mxCell id="f6PvwknIJTiLVUcRaE0x-12" value="" style="shape=umlLifeline;participant=umlActor;perimeter=lifelinePerimeter;whiteSpace=wrap;html=1;container=1;collapsible=0;recursiveResize=0;verticalAlign=top;spacingTop=36;outlineConnect=0;fontColor=#FF00FF;" vertex="1" parent="1">
          <mxGeometry x="10" y="80" width="20" height="750" as="geometry" />
        </mxCell>
        <mxCell id="x2aofLgxbH5DukJWeSKt-5" value="Salaried" style="shape=umlLifeline;perimeter=lifelinePerimeter;container=1;collapsible=0;recursiveResize=0;rounded=0;shadow=0;strokeWidth=1;" vertex="1" parent="1">
          <mxGeometry x="440" y="80" width="80" height="750" as="geometry" />
        </mxCell>
        <mxCell id="x2aofLgxbH5DukJWeSKt-26" value="" style="html=1;points=[];perimeter=orthogonalPerimeter;outlineConnect=0;targetShapes=umlLifeline;portConstraint=eastwest;newEdgeStyle={&quot;edgeStyle&quot;:&quot;elbowEdgeStyle&quot;,&quot;elbow&quot;:&quot;vertical&quot;,&quot;curved&quot;:0,&quot;rounded&quot;:0};" vertex="1" parent="x2aofLgxbH5DukJWeSKt-5">
          <mxGeometry x="35" y="410" width="10" height="20" as="geometry" />
        </mxCell>
        <mxCell id="x2aofLgxbH5DukJWeSKt-7" value="Commissioned" style="shape=umlLifeline;perimeter=lifelinePerimeter;container=1;collapsible=0;recursiveResize=0;rounded=0;shadow=0;strokeWidth=1;" vertex="1" parent="1">
          <mxGeometry x="560" y="80" width="80" height="750" as="geometry" />
        </mxCell>
        <mxCell id="x2aofLgxbH5DukJWeSKt-38" value="" style="html=1;points=[];perimeter=orthogonalPerimeter;outlineConnect=0;targetShapes=umlLifeline;portConstraint=eastwest;newEdgeStyle={&quot;edgeStyle&quot;:&quot;elbowEdgeStyle&quot;,&quot;elbow&quot;:&quot;vertical&quot;,&quot;curved&quot;:0,&quot;rounded&quot;:0};" vertex="1" parent="x2aofLgxbH5DukJWeSKt-7">
          <mxGeometry x="35" y="529" width="10" height="20" as="geometry" />
        </mxCell>
        <mxCell id="x2aofLgxbH5DukJWeSKt-37" value="" style="html=1;points=[];perimeter=orthogonalPerimeter;outlineConnect=0;targetShapes=umlLifeline;portConstraint=eastwest;newEdgeStyle={&quot;edgeStyle&quot;:&quot;elbowEdgeStyle&quot;,&quot;elbow&quot;:&quot;vertical&quot;,&quot;curved&quot;:0,&quot;rounded&quot;:0};" vertex="1" parent="x2aofLgxbH5DukJWeSKt-7">
          <mxGeometry x="35" y="630" width="10" height="20" as="geometry" />
        </mxCell>
        <mxCell id="x2aofLgxbH5DukJWeSKt-9" value="Order" style="shape=umlLifeline;perimeter=lifelinePerimeter;container=1;collapsible=0;recursiveResize=0;rounded=0;shadow=0;strokeWidth=1;" vertex="1" parent="1">
          <mxGeometry x="680" y="80" width="80" height="750" as="geometry" />
        </mxCell>
        <mxCell id="x2aofLgxbH5DukJWeSKt-49" value="" style="html=1;points=[];perimeter=orthogonalPerimeter;outlineConnect=0;targetShapes=umlLifeline;portConstraint=eastwest;newEdgeStyle={&quot;edgeStyle&quot;:&quot;elbowEdgeStyle&quot;,&quot;elbow&quot;:&quot;vertical&quot;,&quot;curved&quot;:0,&quot;rounded&quot;:0};" vertex="1" parent="x2aofLgxbH5DukJWeSKt-9">
          <mxGeometry x="35" y="640" width="10" height="20" as="geometry" />
        </mxCell>
        <mxCell id="x2aofLgxbH5DukJWeSKt-11" value="Paycheck" style="shape=umlLifeline;perimeter=lifelinePerimeter;container=1;collapsible=0;recursiveResize=0;rounded=0;shadow=0;strokeWidth=1;" vertex="1" parent="1">
          <mxGeometry x="800" y="80" width="80" height="750" as="geometry" />
        </mxCell>
        <mxCell id="x2aofLgxbH5DukJWeSKt-21" value="" style="html=1;points=[];perimeter=orthogonalPerimeter;outlineConnect=0;targetShapes=umlLifeline;portConstraint=eastwest;newEdgeStyle={&quot;edgeStyle&quot;:&quot;elbowEdgeStyle&quot;,&quot;elbow&quot;:&quot;vertical&quot;,&quot;curved&quot;:0,&quot;rounded&quot;:0};" vertex="1" parent="x2aofLgxbH5DukJWeSKt-11">
          <mxGeometry x="35" y="230" width="10" height="20" as="geometry" />
        </mxCell>
        <mxCell id="x2aofLgxbH5DukJWeSKt-23" value="" style="html=1;points=[];perimeter=orthogonalPerimeter;outlineConnect=0;targetShapes=umlLifeline;portConstraint=eastwest;newEdgeStyle={&quot;edgeStyle&quot;:&quot;elbowEdgeStyle&quot;,&quot;elbow&quot;:&quot;vertical&quot;,&quot;curved&quot;:0,&quot;rounded&quot;:0};" vertex="1" parent="x2aofLgxbH5DukJWeSKt-11">
          <mxGeometry x="35" y="270" width="10" height="20" as="geometry" />
        </mxCell>
        <mxCell id="x2aofLgxbH5DukJWeSKt-12" value="1 : main()" style="html=1;verticalAlign=bottom;startArrow=oval;startFill=1;endArrow=block;startSize=8;edgeStyle=elbowEdgeStyle;elbow=vertical;curved=0;rounded=0;entryX=-0.027;entryY=-0.001;entryDx=0;entryDy=0;entryPerimeter=0;" edge="1" parent="1" source="f6PvwknIJTiLVUcRaE0x-12" target="3nuBFxr9cyL0pnOWT2aG-2">
          <mxGeometry width="60" relative="1" as="geometry">
            <mxPoint x="50" y="150" as="sourcePoint" />
            <mxPoint x="110" y="150" as="targetPoint" />
          </mxGeometry>
        </mxCell>
        <mxCell id="x2aofLgxbH5DukJWeSKt-13" value="2 :&amp;nbsp;Hourly(employeeId,&lt;font color=&quot;#e6e6fa&quot;&gt;,&lt;/font&gt;hourlyWage, hoursPerWeek)" style="html=1;verticalAlign=bottom;endArrow=block;edgeStyle=elbowEdgeStyle;elbow=vertical;curved=0;rounded=0;exitX=0.993;exitY=0.023;exitDx=0;exitDy=0;exitPerimeter=0;entryX=0.05;entryY=-0.001;entryDx=0;entryDy=0;entryPerimeter=0;" edge="1" parent="1">
          <mxGeometry x="0.1475" width="80" relative="1" as="geometry">
            <mxPoint x="124.92999999999995" y="169.2" as="sourcePoint" />
            <mxPoint x="355.5" y="169.91999999999996" as="targetPoint" />
            <mxPoint as="offset" />
          </mxGeometry>
        </mxCell>
        <mxCell id="x2aofLgxbH5DukJWeSKt-20" value="5 :&amp;nbsp;calcGrossPay(month,yr)" style="html=1;verticalAlign=bottom;endArrow=block;edgeStyle=elbowEdgeStyle;elbow=vertical;curved=0;rounded=0;entryX=-0.055;entryY=-0.004;entryDx=0;entryDy=0;entryPerimeter=0;" edge="1" parent="1" source="x2aofLgxbH5DukJWeSKt-16" target="x2aofLgxbH5DukJWeSKt-19">
          <mxGeometry x="0.3687" width="80" relative="1" as="geometry">
            <mxPoint x="255" y="269.63" as="sourcePoint" />
            <mxPoint x="335" y="269.63" as="targetPoint" />
            <mxPoint as="offset" />
          </mxGeometry>
        </mxCell>
        <mxCell id="x2aofLgxbH5DukJWeSKt-22" value="6 :&amp;nbsp;Paycheck(grossPay, fica,state,local,medicare,socialSecurity)&lt;p style=&quot;margin: 0cm; font-size: 12pt; font-family: Calibri, sans-serif; text-align: start;&quot; class=&quot;MsoNormal&quot;&gt;&lt;span lang=&quot;EN-US&quot;&gt;&lt;/span&gt;&lt;/p&gt;" style="html=1;verticalAlign=bottom;endArrow=block;edgeStyle=elbowEdgeStyle;elbow=vertical;curved=0;rounded=0;entryX=-0.021;entryY=-0.023;entryDx=0;entryDy=0;entryPerimeter=0;" edge="1" parent="1" source="x2aofLgxbH5DukJWeSKt-16" target="x2aofLgxbH5DukJWeSKt-21">
          <mxGeometry x="-0.4406" width="80" relative="1" as="geometry">
            <mxPoint x="270" y="310" as="sourcePoint" />
            <mxPoint x="770" y="310" as="targetPoint" />
            <mxPoint as="offset" />
          </mxGeometry>
        </mxCell>
        <mxCell id="x2aofLgxbH5DukJWeSKt-24" value="7 : print()" style="html=1;verticalAlign=bottom;endArrow=block;edgeStyle=elbowEdgeStyle;elbow=vertical;curved=0;rounded=0;entryX=-0.009;entryY=0.004;entryDx=0;entryDy=0;entryPerimeter=0;exitX=1.017;exitY=0.303;exitDx=0;exitDy=0;exitPerimeter=0;" edge="1" parent="1" source="3nuBFxr9cyL0pnOWT2aG-2" target="x2aofLgxbH5DukJWeSKt-23">
          <mxGeometry x="-0.9007" width="80" relative="1" as="geometry">
            <mxPoint x="132" y="350" as="sourcePoint" />
            <mxPoint x="831.4999999999998" y="350.02127659574467" as="targetPoint" />
            <mxPoint as="offset" />
          </mxGeometry>
        </mxCell>
        <mxCell id="x2aofLgxbH5DukJWeSKt-25" value="" style="html=1;points=[];perimeter=orthogonalPerimeter;outlineConnect=0;targetShapes=umlLifeline;portConstraint=eastwest;newEdgeStyle={&quot;edgeStyle&quot;:&quot;elbowEdgeStyle&quot;,&quot;elbow&quot;:&quot;vertical&quot;,&quot;curved&quot;:0,&quot;rounded&quot;:0};" vertex="1" parent="1">
          <mxGeometry x="476" y="389" width="10" height="20" as="geometry" />
        </mxCell>
        <mxCell id="x2aofLgxbH5DukJWeSKt-27" value="" style="html=1;points=[];perimeter=orthogonalPerimeter;outlineConnect=0;targetShapes=umlLifeline;portConstraint=eastwest;newEdgeStyle={&quot;edgeStyle&quot;:&quot;elbowEdgeStyle&quot;,&quot;elbow&quot;:&quot;vertical&quot;,&quot;curved&quot;:0,&quot;rounded&quot;:0};" vertex="1" parent="1">
          <mxGeometry x="236" y="420" width="10" height="130" as="geometry" />
        </mxCell>
        <mxCell id="x2aofLgxbH5DukJWeSKt-28" value="" style="html=1;points=[];perimeter=orthogonalPerimeter;outlineConnect=0;targetShapes=umlLifeline;portConstraint=eastwest;newEdgeStyle={&quot;edgeStyle&quot;:&quot;elbowEdgeStyle&quot;,&quot;elbow&quot;:&quot;vertical&quot;,&quot;curved&quot;:0,&quot;rounded&quot;:0};" vertex="1" parent="1">
          <mxGeometry x="246" y="450" width="10" height="20" as="geometry" />
        </mxCell>
        <mxCell id="x2aofLgxbH5DukJWeSKt-29" value="10 :&amp;nbsp;calcGrossPay(month,yr)" style="html=1;align=left;spacingLeft=2;endArrow=block;rounded=0;edgeStyle=orthogonalEdgeStyle;curved=0;rounded=0;" edge="1" parent="1" target="x2aofLgxbH5DukJWeSKt-28">
          <mxGeometry x="-1" y="-10" relative="1" as="geometry">
            <mxPoint x="251" y="430" as="sourcePoint" />
            <Array as="points">
              <mxPoint x="251" y="430" />
              <mxPoint x="281" y="430" />
              <mxPoint x="281" y="450" />
            </Array>
            <mxPoint as="offset" />
          </mxGeometry>
        </mxCell>
        <mxCell id="x2aofLgxbH5DukJWeSKt-30" value="9 :&amp;nbsp;calcCompensation(month,year)" style="html=1;verticalAlign=bottom;endArrow=block;edgeStyle=elbowEdgeStyle;elbow=vertical;curved=0;rounded=0;entryX=-0.045;entryY=-0.002;entryDx=0;entryDy=0;entryPerimeter=0;" edge="1" parent="1" target="x2aofLgxbH5DukJWeSKt-27">
          <mxGeometry x="0.6552" width="80" relative="1" as="geometry">
            <mxPoint x="126" y="420.1" as="sourcePoint" />
            <mxPoint x="231" y="420" as="targetPoint" />
            <mxPoint as="offset" />
          </mxGeometry>
        </mxCell>
        <mxCell id="x2aofLgxbH5DukJWeSKt-31" value="" style="html=1;points=[];perimeter=orthogonalPerimeter;outlineConnect=0;targetShapes=umlLifeline;portConstraint=eastwest;newEdgeStyle={&quot;edgeStyle&quot;:&quot;elbowEdgeStyle&quot;,&quot;elbow&quot;:&quot;vertical&quot;,&quot;curved&quot;:0,&quot;rounded&quot;:0};" vertex="1" parent="1">
          <mxGeometry x="836" y="530" width="10" height="20" as="geometry" />
        </mxCell>
        <mxCell id="x2aofLgxbH5DukJWeSKt-32" value="" style="html=1;points=[];perimeter=orthogonalPerimeter;outlineConnect=0;targetShapes=umlLifeline;portConstraint=eastwest;newEdgeStyle={&quot;edgeStyle&quot;:&quot;elbowEdgeStyle&quot;,&quot;elbow&quot;:&quot;vertical&quot;,&quot;curved&quot;:0,&quot;rounded&quot;:0};" vertex="1" parent="1">
          <mxGeometry x="836" y="570" width="10" height="20" as="geometry" />
        </mxCell>
        <mxCell id="x2aofLgxbH5DukJWeSKt-33" value="8 :&amp;nbsp;Salaried(employeeId,salary)" style="html=1;verticalAlign=bottom;endArrow=block;edgeStyle=elbowEdgeStyle;elbow=vertical;curved=0;rounded=0;exitX=1.01;exitY=0.363;exitDx=0;exitDy=0;exitPerimeter=0;entryX=-0.007;entryY=0.024;entryDx=0;entryDy=0;entryPerimeter=0;" edge="1" parent="1" source="3nuBFxr9cyL0pnOWT2aG-2" target="x2aofLgxbH5DukJWeSKt-25">
          <mxGeometry x="-0.5194" width="80" relative="1" as="geometry">
            <mxPoint x="130" y="390" as="sourcePoint" />
            <mxPoint x="470" y="390" as="targetPoint" />
            <mxPoint as="offset" />
            <Array as="points">
              <mxPoint x="150" y="390" />
            </Array>
          </mxGeometry>
        </mxCell>
        <mxCell id="x2aofLgxbH5DukJWeSKt-34" value="11 :&amp;nbsp;calcGrossPay(month,yr)" style="html=1;verticalAlign=bottom;endArrow=block;edgeStyle=elbowEdgeStyle;elbow=vertical;curved=0;rounded=0;entryX=-0.055;entryY=-0.004;entryDx=0;entryDy=0;entryPerimeter=0;" edge="1" parent="1" source="x2aofLgxbH5DukJWeSKt-27" target="x2aofLgxbH5DukJWeSKt-26">
          <mxGeometry x="-0.2655" width="80" relative="1" as="geometry">
            <mxPoint x="256" y="489.63" as="sourcePoint" />
            <mxPoint x="336" y="489.63" as="targetPoint" />
            <mxPoint as="offset" />
          </mxGeometry>
        </mxCell>
        <mxCell id="x2aofLgxbH5DukJWeSKt-35" value="12 :&amp;nbsp;Paycheck(grossPay, fica,state,local,medicare,socialSecurity)&lt;p style=&quot;margin: 0cm; font-size: 12pt; font-family: Calibri, sans-serif; text-align: start;&quot; class=&quot;MsoNormal&quot;&gt;&lt;span lang=&quot;EN-US&quot;&gt;&lt;/span&gt;&lt;/p&gt;" style="html=1;verticalAlign=bottom;endArrow=block;edgeStyle=elbowEdgeStyle;elbow=vertical;curved=0;rounded=0;entryX=-0.021;entryY=-0.023;entryDx=0;entryDy=0;entryPerimeter=0;" edge="1" parent="1" source="x2aofLgxbH5DukJWeSKt-27" target="x2aofLgxbH5DukJWeSKt-31">
          <mxGeometry x="-0.41" width="80" relative="1" as="geometry">
            <mxPoint x="271" y="530" as="sourcePoint" />
            <mxPoint x="771" y="530" as="targetPoint" />
            <mxPoint as="offset" />
          </mxGeometry>
        </mxCell>
        <mxCell id="x2aofLgxbH5DukJWeSKt-36" value="13 : print()" style="html=1;verticalAlign=bottom;endArrow=block;edgeStyle=elbowEdgeStyle;elbow=vertical;curved=0;rounded=0;entryX=0.013;entryY=0;entryDx=0;entryDy=0;entryPerimeter=0;exitX=0.983;exitY=0.637;exitDx=0;exitDy=0;exitPerimeter=0;" edge="1" parent="1" source="3nuBFxr9cyL0pnOWT2aG-2" target="x2aofLgxbH5DukJWeSKt-32">
          <mxGeometry x="-0.9007" width="80" relative="1" as="geometry">
            <mxPoint x="140" y="570" as="sourcePoint" />
            <mxPoint x="800" y="570" as="targetPoint" />
            <mxPoint as="offset" />
            <Array as="points">
              <mxPoint x="800" y="570" />
            </Array>
          </mxGeometry>
        </mxCell>
        <mxCell id="x2aofLgxbH5DukJWeSKt-39" value="" style="html=1;points=[];perimeter=orthogonalPerimeter;outlineConnect=0;targetShapes=umlLifeline;portConstraint=eastwest;newEdgeStyle={&quot;edgeStyle&quot;:&quot;elbowEdgeStyle&quot;,&quot;elbow&quot;:&quot;vertical&quot;,&quot;curved&quot;:0,&quot;rounded&quot;:0};" vertex="1" parent="1">
          <mxGeometry x="235" y="640" width="10" height="130" as="geometry" />
        </mxCell>
        <mxCell id="x2aofLgxbH5DukJWeSKt-40" value="" style="html=1;points=[];perimeter=orthogonalPerimeter;outlineConnect=0;targetShapes=umlLifeline;portConstraint=eastwest;newEdgeStyle={&quot;edgeStyle&quot;:&quot;elbowEdgeStyle&quot;,&quot;elbow&quot;:&quot;vertical&quot;,&quot;curved&quot;:0,&quot;rounded&quot;:0};" vertex="1" parent="1">
          <mxGeometry x="245" y="670" width="10" height="20" as="geometry" />
        </mxCell>
        <mxCell id="x2aofLgxbH5DukJWeSKt-41" value="16 :&amp;nbsp;calcGrossPay(month,yr)" style="html=1;align=left;spacingLeft=2;endArrow=block;rounded=0;edgeStyle=orthogonalEdgeStyle;curved=0;rounded=0;" edge="1" parent="1" target="x2aofLgxbH5DukJWeSKt-40">
          <mxGeometry x="-1" y="-10" relative="1" as="geometry">
            <mxPoint x="250" y="650" as="sourcePoint" />
            <Array as="points">
              <mxPoint x="250" y="650" />
              <mxPoint x="280" y="650" />
              <mxPoint x="280" y="670" />
            </Array>
            <mxPoint as="offset" />
          </mxGeometry>
        </mxCell>
        <mxCell id="x2aofLgxbH5DukJWeSKt-42" value="15 :&amp;nbsp;calcCompensation(month,year)" style="html=1;verticalAlign=bottom;endArrow=block;edgeStyle=elbowEdgeStyle;elbow=vertical;curved=0;rounded=0;entryX=-0.045;entryY=-0.002;entryDx=0;entryDy=0;entryPerimeter=0;" edge="1" parent="1" target="x2aofLgxbH5DukJWeSKt-39">
          <mxGeometry x="0.6552" width="80" relative="1" as="geometry">
            <mxPoint x="125" y="640.1" as="sourcePoint" />
            <mxPoint x="230" y="640" as="targetPoint" />
            <mxPoint as="offset" />
          </mxGeometry>
        </mxCell>
        <mxCell id="x2aofLgxbH5DukJWeSKt-43" value="" style="html=1;points=[];perimeter=orthogonalPerimeter;outlineConnect=0;targetShapes=umlLifeline;portConstraint=eastwest;newEdgeStyle={&quot;edgeStyle&quot;:&quot;elbowEdgeStyle&quot;,&quot;elbow&quot;:&quot;vertical&quot;,&quot;curved&quot;:0,&quot;rounded&quot;:0};" vertex="1" parent="1">
          <mxGeometry x="835" y="750" width="10" height="20" as="geometry" />
        </mxCell>
        <mxCell id="x2aofLgxbH5DukJWeSKt-44" value="" style="html=1;points=[];perimeter=orthogonalPerimeter;outlineConnect=0;targetShapes=umlLifeline;portConstraint=eastwest;newEdgeStyle={&quot;edgeStyle&quot;:&quot;elbowEdgeStyle&quot;,&quot;elbow&quot;:&quot;vertical&quot;,&quot;curved&quot;:0,&quot;rounded&quot;:0};" vertex="1" parent="1">
          <mxGeometry x="835" y="790" width="10" height="20" as="geometry" />
        </mxCell>
        <mxCell id="x2aofLgxbH5DukJWeSKt-45" value="14 :&amp;nbsp;Commissioned(employeeId,commission,baseSalary,orders)" style="html=1;verticalAlign=bottom;endArrow=block;edgeStyle=elbowEdgeStyle;elbow=vertical;curved=0;rounded=0;exitX=0.982;exitY=0.346;exitDx=0;exitDy=0;exitPerimeter=0;entryX=-0.011;entryY=0.009;entryDx=0;entryDy=0;entryPerimeter=0;" edge="1" parent="1" target="x2aofLgxbH5DukJWeSKt-38">
          <mxGeometry x="-0.2935" width="80" relative="1" as="geometry">
            <mxPoint x="124" y="609" as="sourcePoint" />
            <mxPoint x="355.5" y="609.92" as="targetPoint" />
            <mxPoint x="-1" as="offset" />
          </mxGeometry>
        </mxCell>
        <mxCell id="x2aofLgxbH5DukJWeSKt-46" value="17 :&amp;nbsp;calcGrossPay(month,yr)" style="html=1;verticalAlign=bottom;endArrow=block;edgeStyle=elbowEdgeStyle;elbow=vertical;curved=0;rounded=0;entryX=-0.055;entryY=-0.004;entryDx=0;entryDy=0;entryPerimeter=0;" edge="1" parent="1" source="x2aofLgxbH5DukJWeSKt-39" target="x2aofLgxbH5DukJWeSKt-37">
          <mxGeometry x="-0.5136" width="80" relative="1" as="geometry">
            <mxPoint x="255" y="709.63" as="sourcePoint" />
            <mxPoint x="335" y="709.63" as="targetPoint" />
            <mxPoint as="offset" />
          </mxGeometry>
        </mxCell>
        <mxCell id="x2aofLgxbH5DukJWeSKt-47" value="19 :&amp;nbsp;Paycheck(grossPay, fica,state,local,medicare,socialSecurity)&lt;p style=&quot;margin: 0cm; font-size: 12pt; font-family: Calibri, sans-serif; text-align: start;&quot; class=&quot;MsoNormal&quot;&gt;&lt;span lang=&quot;EN-US&quot;&gt;&lt;/span&gt;&lt;/p&gt;" style="html=1;verticalAlign=bottom;endArrow=block;edgeStyle=elbowEdgeStyle;elbow=vertical;curved=0;rounded=0;entryX=-0.021;entryY=-0.023;entryDx=0;entryDy=0;entryPerimeter=0;" edge="1" parent="1" source="x2aofLgxbH5DukJWeSKt-39" target="x2aofLgxbH5DukJWeSKt-43">
          <mxGeometry x="-0.4107" width="80" relative="1" as="geometry">
            <mxPoint x="270" y="750" as="sourcePoint" />
            <mxPoint x="770" y="750" as="targetPoint" />
            <mxPoint as="offset" />
          </mxGeometry>
        </mxCell>
        <mxCell id="x2aofLgxbH5DukJWeSKt-48" value="20 : print()" style="html=1;verticalAlign=bottom;endArrow=block;edgeStyle=elbowEdgeStyle;elbow=vertical;curved=0;rounded=0;exitX=0.978;exitY=0.608;exitDx=0;exitDy=0;exitPerimeter=0;entryX=-0.064;entryY=-0.013;entryDx=0;entryDy=0;entryPerimeter=0;" edge="1" parent="1" target="x2aofLgxbH5DukJWeSKt-44">
          <mxGeometry x="-0.9007" width="80" relative="1" as="geometry">
            <mxPoint x="124" y="790" as="sourcePoint" />
            <mxPoint x="790" y="790" as="targetPoint" />
            <mxPoint as="offset" />
          </mxGeometry>
        </mxCell>
        <mxCell id="x2aofLgxbH5DukJWeSKt-50" value="18 : *getOrderAmount" style="html=1;verticalAlign=bottom;endArrow=block;edgeStyle=elbowEdgeStyle;elbow=vertical;curved=0;rounded=0;exitX=0.983;exitY=0.5;exitDx=0;exitDy=0;exitPerimeter=0;entryX=-0.024;entryY=-0.013;entryDx=0;entryDy=0;entryPerimeter=0;" edge="1" parent="1" source="x2aofLgxbH5DukJWeSKt-37" target="x2aofLgxbH5DukJWeSKt-49">
          <mxGeometry x="0.0061" width="80" relative="1" as="geometry">
            <mxPoint x="620" y="720" as="sourcePoint" />
            <mxPoint x="700" y="720" as="targetPoint" />
            <mxPoint as="offset" />
          </mxGeometry>
        </mxCell>
      </root>
    </mxGraphModel>
  </diagram>
</mxfile>
